# xmcd CD database file
#
# Track frame offsets:
#	150
#	42230
#	95350
#	138881
#	159369
#	207592
#	254709
#
# Disc length: 3630 seconds
#
# Revision: 0
# Processed by: cddbd v1.5.2PL0 Copyright (c) Steve Scherf et al.
# Submitted via: CDex 1.70beta3
#
DISCID=5e0e2c07
DTITLE=Iijima Akira - Combo Rakia's - Disc2
DYEAR=1900
DGENRE=Jazz
TTITLE0=背広の男と象の庭i.ii,iii
TTITLE1=月の谷のピレアi,ii,iii,iv
TTITLE2=待つための根拠i,ii,iii,iv
TTITLE3=砂まじりi,ii
TTITLE4=いばらのサギ師i,ii,iii,iv,v
TTITLE5=ロビンi,ii,iii,iv
TTITLE6=セラフィタの季節
EXTD=
EXTT0=
EXTT1=
EXTT2=
EXTT3=
EXTT4=
EXTT5=
EXTT6=
PLAYORDER=
